<svg width="1653" height="993" xmlns="http://www.w3.org/2000/svg" xmlns:xlink="http://www.w3.org/1999/xlink" overflow="hidden"><defs><clipPath id="clip0"><rect x="4822" y="5602" width="1653" height="993"/></clipPath><clipPath id="clip1"><rect x="4823" y="5602" width="1650" height="990"/></clipPath><clipPath id="clip2"><rect x="4823" y="5602" width="1650" height="990"/></clipPath><clipPath id="clip3"><rect x="4823" y="5602" width="1650" height="990"/></clipPath><clipPath id="clip4"><rect x="5040" y="5653" width="1375" height="739"/></clipPath><clipPath id="clip5"><rect x="4823" y="5602" width="1650" height="990"/></clipPath><clipPath id="clip6"><rect x="5040" y="5653" width="1375" height="739"/></clipPath><clipPath id="clip7"><rect x="4823" y="5602" width="1650" height="990"/></clipPath><clipPath id="clip8"><rect x="4823" y="5602" width="1650" height="990"/></clipPath><clipPath id="clip9"><rect x="4823" y="5602" width="1650" height="990"/></clipPath><clipPath id="clip10"><rect x="4823" y="5602" width="1650" height="990"/></clipPath><clipPath id="clip11"><rect x="4823" y="5602" width="1650" height="990"/></clipPath><clipPath id="clip12"><rect x="4823" y="5602" width="1650" height="990"/></clipPath><clipPath id="clip13"><rect x="4823" y="5602" width="1650" height="990"/></clipPath><clipPath id="clip14"><rect x="4823" y="5602" width="1650" height="990"/></clipPath><clipPath id="clip15"><rect x="4823" y="5602" width="1650" height="990"/></clipPath><clipPath id="clip16"><rect x="4823" y="5602" width="1650" height="990"/></clipPath><clipPath id="clip17"><rect x="4823" y="5602" width="1650" height="990"/></clipPath><clipPath id="clip18"><rect x="4823" y="5602" width="1650" height="990"/></clipPath><clipPath id="clip19"><rect x="4823" y="5602" width="1650" height="990"/></clipPath><clipPath id="clip20"><rect x="4823" y="5602" width="1650" height="990"/></clipPath><clipPath id="clip21"><rect x="4823" y="5602" width="1650" height="990"/></clipPath><clipPath id="clip22"><rect x="4823" y="5602" width="1650" height="990"/></clipPath><clipPath id="clip23"><rect x="4823" y="5602" width="1650" height="990"/></clipPath><clipPath id="clip24"><rect x="4823" y="5602" width="1650" height="990"/></clipPath><clipPath id="clip25"><rect x="4823" y="5602" width="1650" height="990"/></clipPath><clipPath id="clip26"><rect x="4823" y="5602" width="1650" height="990"/></clipPath><clipPath id="clip27"><rect x="4823" y="5602" width="1650" height="990"/></clipPath><clipPath id="clip28"><rect x="4823" y="5602" width="1650" height="990"/></clipPath><clipPath id="clip29"><rect x="4823" y="5602" width="1650" height="990"/></clipPath><clipPath id="clip30"><rect x="4823" y="5602" width="1650" height="990"/></clipPath><clipPath id="clip31"><rect x="4823" y="5602" width="1650" height="990"/></clipPath><clipPath id="clip32"><rect x="4823" y="5602" width="1650" height="990"/></clipPath><clipPath id="clip33"><rect x="4823" y="5602" width="1650" height="990"/></clipPath></defs><g clip-path="url(#clip0)" transform="translate(-4822 -5602)"><rect x="4823" y="5603" width="1650" height="990" fill="#FFFFFF"/><g clip-path="url(#clip1)"><rect x="5040.5" y="5653.5" width="1372" height="736" stroke="#A5A5A5" stroke-width="3.4375" stroke-linejoin="round" stroke-miterlimit="10" fill="none"/></g><g clip-path="url(#clip2)"><path d="M0 0 0.000360892 736" stroke="#BFBFBF" stroke-width="3.4375" stroke-linejoin="round" stroke-miterlimit="10" fill="none" fill-rule="evenodd" transform="matrix(1 0 0 -1 5040.5 6389.5)"/></g><g clip-path="url(#clip3)"><path d="M5040.5 6389.5 6412.5 6389.5" stroke="#BFBFBF" stroke-width="3.4375" stroke-linejoin="round" stroke-miterlimit="10" fill="none" fill-rule="evenodd"/></g><g clip-path="url(#clip4)"><path d="M5126.5 6251.71 5297.67 6254.5 5554.68 6087.7 6240.5 5941.5" stroke="#4472C4" stroke-width="6.875" stroke-linecap="round" stroke-linejoin="round" stroke-miterlimit="10" fill="none"/></g><g clip-path="url(#clip5)"><path d="M5137.58 6251.1C5137.58 6257.17 5132.65 6262.1 5126.58 6262.1 5120.5 6262.1 5115.58 6257.17 5115.58 6251.1 5115.58 6245.02 5120.5 6240.1 5126.58 6240.1 5132.65 6240.1 5137.58 6245.02 5137.58 6251.1Z" stroke="#4472C4" stroke-width="3.4375" stroke-linejoin="round" stroke-miterlimit="10" fill="#4472C4"/><path d="M5308.58 6254.1C5308.58 6260.17 5303.65 6265.1 5297.58 6265.1 5291.5 6265.1 5286.58 6260.17 5286.58 6254.1 5286.58 6248.02 5291.5 6243.1 5297.58 6243.1 5303.65 6243.1 5308.58 6248.02 5308.58 6254.1Z" stroke="#4472C4" stroke-width="3.4375" stroke-linejoin="round" stroke-miterlimit="10" fill="#4472C4"/><path d="M5565.58 6087.1C5565.58 6093.17 5560.65 6098.1 5554.58 6098.1 5548.5 6098.1 5543.58 6093.17 5543.58 6087.1 5543.58 6081.02 5548.5 6076.1 5554.58 6076.1 5560.65 6076.1 5565.58 6081.02 5565.58 6087.1Z" stroke="#4472C4" stroke-width="3.4375" stroke-linejoin="round" stroke-miterlimit="10" fill="#4472C4"/><path d="M6251.58 5941.1C6251.58 5947.17 6246.65 5952.1 6240.58 5952.1 6234.5 5952.1 6229.58 5947.17 6229.58 5941.1 6229.58 5935.02 6234.5 5930.1 6240.58 5930.1 6246.65 5930.1 6251.58 5935.02 6251.58 5941.1Z" stroke="#4472C4" stroke-width="3.4375" stroke-linejoin="round" stroke-miterlimit="10" fill="#4472C4"/></g><g clip-path="url(#clip6)"><path d="M5040.5 5845.5 6412.5 5845.5" stroke="#ED7D31" stroke-width="6.875" stroke-linecap="round" stroke-linejoin="round" stroke-miterlimit="10" stroke-dasharray="0 13.75" fill="none"/></g><g clip-path="url(#clip7)"><text fill="#595959" font-family="Calibri,Calibri_MSFontService,sans-serif" font-weight="400" font-size="41" transform="matrix(1 0 0 1 4981.36 6401)">0</text></g><g clip-path="url(#clip8)"><text fill="#595959" font-family="Calibri,Calibri_MSFontService,sans-serif" font-weight="400" font-size="41" transform="matrix(1 0 0 1 4950.06 6327)">0.1</text></g><g clip-path="url(#clip9)"><text fill="#595959" font-family="Calibri,Calibri_MSFontService,sans-serif" font-weight="400" font-size="41" transform="matrix(1 0 0 1 4950.06 6253)">0.2</text></g><g clip-path="url(#clip10)"><text fill="#595959" font-family="Calibri,Calibri_MSFontService,sans-serif" font-weight="400" font-size="41" transform="matrix(1 0 0 1 4950.06 6180)">0.3</text></g><g clip-path="url(#clip11)"><text fill="#595959" font-family="Calibri,Calibri_MSFontService,sans-serif" font-weight="400" font-size="41" transform="matrix(1 0 0 1 4950.06 6106)">0.4</text></g><g clip-path="url(#clip12)"><text fill="#595959" font-family="Calibri,Calibri_MSFontService,sans-serif" font-weight="400" font-size="41" transform="matrix(1 0 0 1 4950.06 6033)">0.5</text></g><g clip-path="url(#clip13)"><text fill="#595959" font-family="Calibri,Calibri_MSFontService,sans-serif" font-weight="400" font-size="41" transform="matrix(1 0 0 1 4950.06 5959)">0.6</text></g><g clip-path="url(#clip14)"><text fill="#595959" font-family="Calibri,Calibri_MSFontService,sans-serif" font-weight="400" font-size="41" transform="matrix(1 0 0 1 4950.06 5885)">0.7</text></g><g clip-path="url(#clip15)"><text fill="#595959" font-family="Calibri,Calibri_MSFontService,sans-serif" font-weight="400" font-size="41" transform="matrix(1 0 0 1 4950.06 5812)">0.8</text></g><g clip-path="url(#clip16)"><text fill="#595959" font-family="Calibri,Calibri_MSFontService,sans-serif" font-weight="400" font-size="41" transform="matrix(1 0 0 1 4950.06 5738)">0.9</text></g><g clip-path="url(#clip17)"><text fill="#595959" font-family="Calibri,Calibri_MSFontService,sans-serif" font-weight="400" font-size="41" transform="matrix(1 0 0 1 4981.36 5665)">1</text></g><g clip-path="url(#clip18)"><text fill="#595959" font-family="Calibri,Calibri_MSFontService,sans-serif" font-weight="400" font-size="41" transform="matrix(1 0 0 1 5030.08 6454)">0</text></g><g clip-path="url(#clip19)"><text fill="#595959" font-family="Calibri,Calibri_MSFontService,sans-serif" font-weight="400" font-size="41" transform="matrix(1 0 0 1 5201.54 6454)">1</text></g><g clip-path="url(#clip20)"><text fill="#595959" font-family="Calibri,Calibri_MSFontService,sans-serif" font-weight="400" font-size="41" transform="matrix(1 0 0 1 5373 6454)">2</text></g><g clip-path="url(#clip21)"><text fill="#595959" font-family="Calibri,Calibri_MSFontService,sans-serif" font-weight="400" font-size="41" transform="matrix(1 0 0 1 5544.46 6454)">3</text></g><g clip-path="url(#clip22)"><text fill="#595959" font-family="Calibri,Calibri_MSFontService,sans-serif" font-weight="400" font-size="41" transform="matrix(1 0 0 1 5715.92 6454)">4</text></g><g clip-path="url(#clip23)"><text fill="#595959" font-family="Calibri,Calibri_MSFontService,sans-serif" font-weight="400" font-size="41" transform="matrix(1 0 0 1 5887.38 6454)">5</text></g><g clip-path="url(#clip24)"><text fill="#595959" font-family="Calibri,Calibri_MSFontService,sans-serif" font-weight="400" font-size="41" transform="matrix(1 0 0 1 6058.84 6454)">6</text></g><g clip-path="url(#clip25)"><text fill="#595959" font-family="Calibri,Calibri_MSFontService,sans-serif" font-weight="400" font-size="41" transform="matrix(1 0 0 1 6230.3 6454)">7</text></g><g clip-path="url(#clip26)"><text fill="#595959" font-family="Calibri,Calibri_MSFontService,sans-serif" font-weight="400" font-size="41" transform="matrix(1 0 0 1 6401.76 6454)">8</text></g><g clip-path="url(#clip27)"><text fill="#595959" font-family="Calibri,Calibri_MSFontService,sans-serif" font-weight="400" font-size="46" transform="matrix(6.12323e-17 -1 1 6.12323e-17 4924.37 6066)">MRR</text></g><g clip-path="url(#clip28)"><text fill="#595959" font-family="Calibri,Calibri_MSFontService,sans-serif" font-weight="400" font-size="46" transform="matrix(1 0 0 1 5594.6 6523)">Model size (B)</text></g><g clip-path="url(#clip29)"><path d="M5916.5 6261.5 6031.5 6261.5" stroke="#4472C4" stroke-width="6.875" stroke-linecap="round" stroke-linejoin="round" stroke-miterlimit="10" fill="none" fill-rule="evenodd"/></g><g clip-path="url(#clip30)"><path d="M5985 6261C5985 6267.07 5980.08 6272 5974 6272 5967.92 6272 5963 6267.07 5963 6261 5963 6254.92 5967.92 6250 5974 6250 5980.08 6250 5985 6254.92 5985 6261Z" stroke="#4472C4" stroke-width="3.4375" stroke-linejoin="round" stroke-miterlimit="10" fill="#4472C4"/></g><g clip-path="url(#clip31)"><text fill="#595959" font-family="Calibri,Calibri_MSFontService,sans-serif" font-weight="400" font-size="41" transform="matrix(1 0 0 1 6044.56 6273)">Qwen 2.5</text></g><g clip-path="url(#clip32)"><path d="M5916.5 6343.5 6031.5 6343.5" stroke="#ED7D31" stroke-width="6.875" stroke-linecap="round" stroke-linejoin="round" stroke-miterlimit="10" stroke-dasharray="0 13.75" fill="none" fill-rule="evenodd"/></g><g clip-path="url(#clip33)"><text fill="#595959" font-family="Calibri,Calibri_MSFontService,sans-serif" font-weight="400" font-size="41" transform="matrix(1 0 0 1 6044.56 6355)">Gemini 2.5 Flash</text></g><rect x="4823.5" y="5603.5" width="1650" height="990" stroke="#D9D9D9" stroke-width="3.4375" stroke-linejoin="round" stroke-miterlimit="10" fill="none"/></g></svg>